<?xml version="1.0" encoding="UTF-8" standalone="no"?>
<!-- Created with Inkscape (http://www.inkscape.org/) -->

<svg
   xmlns:dc="http://purl.org/dc/elements/1.1/"
   xmlns:cc="http://creativecommons.org/ns#"
   xmlns:rdf="http://www.w3.org/1999/02/22-rdf-syntax-ns#"
   xmlns:svg="http://www.w3.org/2000/svg"
   xmlns="http://www.w3.org/2000/svg"
   xmlns:sodipodi="http://sodipodi.sourceforge.net/DTD/sodipodi-0.dtd"
   xmlns:inkscape="http://www.inkscape.org/namespaces/inkscape"
   version="1.1"
   id="svg2"
   xml:space="preserve"
   width="4096"
   height="4096"
   viewBox="0 0 4096 4095.9999"
   sodipodi:docname="deloitte-logo.svg"
   inkscape:export-filename="G:\Users\suitedoalex\sites\deloitte-logo-0.png"
   inkscape:export-xdpi="96"
   inkscape:export-ydpi="96"
   inkscape:version="0.92.2 (5c3e80d, 2017-08-06)"><metadata
     id="metadata8"><rdf:RDF><cc:Work
         rdf:about=""><dc:format>image/svg+xml</dc:format><dc:type
           rdf:resource="http://purl.org/dc/dcmitype/StillImage" /><dc:title></dc:title></cc:Work></rdf:RDF></metadata><defs
     id="defs6"><clipPath
       clipPathUnits="userSpaceOnUse"
       id="clipPath26"><path
         d="m 378.625,66.614 h 133.973 v 24.96 H 378.625 Z"
         id="path24"
         inkscape:connector-curvature="0" /></clipPath><clipPath
       clipPathUnits="userSpaceOnUse"
       id="clipPath76"><path
         d="m 377.481,632.026 h 136.535 v 43.059 H 377.481 Z"
         id="path74"
         inkscape:connector-curvature="0" /></clipPath></defs><sodipodi:namedview
     pagecolor="#ffffff"
     bordercolor="#666666"
     borderopacity="1"
     objecttolerance="10"
     gridtolerance="10"
     guidetolerance="10"
     inkscape:pageopacity="0"
     inkscape:pageshadow="2"
     inkscape:window-width="1920"
     inkscape:window-height="1017"
     id="namedview4"
     showgrid="false"
     inkscape:zoom="0.056765116"
     inkscape:cx="-2698.3263"
     inkscape:cy="4274.4638"
     inkscape:window-x="-8"
     inkscape:window-y="-8"
     inkscape:window-maximized="1"
     inkscape:current-layer="g10" /><g
     id="g10"
     inkscape:groupmode="layer"
     inkscape:label="febraban-logo"
     transform="matrix(1.3333333,0,0,-1.3333333,0,4096)"><g
       id="g20"
       transform="matrix(16.720612,0,0,16.720612,-5914.8978,213.49995)"
       inkscape:export-filename="G:\Users\suitedoalex\sites\deloitte-logo-4.png"
       inkscape:export-xdpi="12.85652"
       inkscape:export-ydpi="12.85652"><g
         id="g22"
         clip-path="url(#clipPath26)"><g
           id="g28"
           transform="translate(505.4977,70.0768)"><path
             d="M 0,0 C 0,1.96 1.592,3.55 3.55,3.55 5.511,3.55 7.101,1.96 7.101,0 7.101,-1.96 5.511,-3.55 3.55,-3.55 1.592,-3.55 0,-1.96 0,0"
             style="fill:#86bc25;fill-opacity:1;fill-rule:nonzero;stroke:none"
             id="path30"
             inkscape:connector-curvature="0" /></g><g
           id="g32"
           transform="translate(392.2541,79.4806)"><path
             d="M 0,0 C 0,2.249 -0.434,3.918 -1.304,5.005 -2.174,6.09 -3.492,6.633 -5.265,6.633 H -7.15 V -7.121 h 1.443 c 1.968,0 3.411,0.585 4.329,1.755 C -0.46,-4.196 0,-2.407 0,0 m 6.724,0.234 c 0,-4.097 -1.102,-7.254 -3.305,-9.47 -2.203,-2.218 -5.3,-3.326 -9.29,-3.326 h -7.758 V 11.99 h 8.299 c 3.848,0 6.82,-1.008 8.914,-3.022 2.093,-2.016 3.14,-4.926 3.14,-8.734"
             style="fill:#000000;fill-opacity:1;fill-rule:nonzero;stroke:none"
             id="path34"
             inkscape:connector-curvature="0" /></g><path
           d="m 420.463,66.918 h 6.172 v 24.656 h -6.172 z"
           style="fill:#000000;fill-opacity:1;fill-rule:nonzero;stroke:none"
           id="path36"
           inkscape:connector-curvature="0" /><g
           id="g38"
           transform="translate(435.3047,76.115)"><path
             d="m 0,0 c 0,-1.572 0.205,-2.771 0.615,-3.595 0.411,-0.825 1.1,-1.237 2.068,-1.237 0.958,0 1.634,0.412 2.029,1.237 0.394,0.824 0.591,2.023 0.591,3.595 0,1.564 -0.2,2.743 -0.599,3.539 C 4.303,4.338 3.62,4.737 2.651,4.737 1.704,4.737 1.026,4.34 0.615,3.548 0.205,2.756 0,1.574 0,0 M 11.585,0 C 11.585,-2.995 10.8,-5.331 9.226,-7.006 7.653,-8.682 5.45,-9.52 2.62,-9.52 c -2.715,0 -4.875,0.857 -6.479,2.571 -1.606,1.713 -2.408,4.029 -2.408,6.949 0,2.986 0.786,5.306 2.36,6.96 1.574,1.654 3.781,2.481 6.622,2.481 1.757,0 3.31,-0.383 4.656,-1.148 C 8.718,7.527 9.757,6.431 10.488,5.003 11.22,3.576 11.585,1.908 11.585,0"
             style="fill:#000000;fill-opacity:1;fill-rule:nonzero;stroke:none"
             id="path40"
             inkscape:connector-curvature="0" /></g><path
           d="m 449.34,66.918 h 6.172 v 18.314 h -6.172 z"
           style="fill:#000000;fill-opacity:1;fill-rule:nonzero;stroke:none"
           id="path42"
           inkscape:connector-curvature="0" /><path
           d="m 449.34,87.447 h 6.172 v 4.127 h -6.172 z"
           style="fill:#000000;fill-opacity:1;fill-rule:nonzero;stroke:none"
           id="path44"
           inkscape:connector-curvature="0" /><g
           id="g46"
           transform="translate(468.0192,71.5895)"><path
             d="M 0,0 C 0.833,0 1.826,0.211 2.984,0.631 V -3.977 C 2.151,-4.342 1.36,-4.604 0.608,-4.759 c -0.752,-0.157 -1.634,-0.235 -2.645,-0.235 -2.072,0 -3.566,0.52 -4.483,1.56 -0.914,1.04 -1.371,2.637 -1.371,4.791 v 7.55 h -2.162 v 4.735 h 2.162 v 4.676 L -1.672,19.4 V 13.642 H 2.266 V 8.907 H -1.672 V 1.778 C -1.672,0.593 -1.114,0 0,0"
             style="fill:#000000;fill-opacity:1;fill-rule:nonzero;stroke:none"
             id="path48"
             inkscape:connector-curvature="0" /></g><g
           id="g50"
           transform="translate(482.3055,71.5895)"><path
             d="M 0,0 C 0.833,0 1.825,0.211 2.984,0.631 V -3.977 C 2.153,-4.342 1.36,-4.604 0.608,-4.759 c -0.753,-0.157 -1.633,-0.235 -2.645,-0.235 -2.072,0 -3.566,0.52 -4.481,1.56 -0.916,1.04 -1.373,2.637 -1.373,4.791 v 7.55 h -2.164 v 4.735 h 2.164 v 4.747 l 6.219,1.011 v -5.758 h 3.94 V 8.907 h -3.94 V 1.778 C -1.672,0.593 -1.114,0 0,0"
             style="fill:#000000;fill-opacity:1;fill-rule:nonzero;stroke:none"
             id="path52"
             inkscape:connector-curvature="0" /></g><g
           id="g54"
           transform="translate(493.078,78.3461)"><path
             d="M 0,0 C 0.085,1.002 0.371,1.737 0.86,2.207 1.351,2.676 1.958,2.91 2.683,2.91 3.473,2.91 4.102,2.646 4.569,2.117 5.039,1.589 5.283,0.884 5.302,0 Z M 8.704,5.051 C 7.238,6.49 5.156,7.209 2.463,7.209 c -2.831,0 -5.009,-0.826 -6.536,-2.481 -1.525,-1.654 -2.289,-4.027 -2.289,-7.12 0,-2.995 0.825,-5.305 2.471,-6.926 1.647,-1.621 3.96,-2.433 6.938,-2.433 1.431,0 2.662,0.098 3.693,0.292 1.025,0.192 2.018,0.539 2.981,1.041 L 8.773,-6.292 C 8.072,-6.577 7.406,-6.797 6.778,-6.942 5.87,-7.152 4.873,-7.258 3.789,-7.258 c -1.191,0 -2.13,0.291 -2.818,0.873 -0.688,0.582 -1.056,1.386 -1.097,2.409 h 11.033 v 2.811 c 0,2.706 -0.735,4.778 -2.203,6.216"
             style="fill:#000000;fill-opacity:1;fill-rule:nonzero;stroke:none"
             id="path56"
             inkscape:connector-curvature="0" /></g><g
           id="g58"
           transform="translate(407.1694,78.3461)"><path
             d="M 0,0 C 0.084,1.002 0.371,1.737 0.86,2.207 1.35,2.676 1.957,2.91 2.684,2.91 3.472,2.91 4.101,2.646 4.569,2.117 5.038,1.589 5.283,0.884 5.303,0 Z M 8.705,5.051 C 7.238,6.49 5.156,7.209 2.462,7.209 c -2.831,0 -5.009,-0.826 -6.534,-2.481 -1.526,-1.654 -2.29,-4.027 -2.29,-7.12 0,-2.995 0.824,-5.305 2.472,-6.926 1.646,-1.621 3.959,-2.433 6.937,-2.433 1.431,0 2.662,0.098 3.693,0.292 1.025,0.192 2.018,0.539 2.981,1.041 l -0.948,4.126 c -0.7,-0.285 -1.366,-0.505 -1.994,-0.65 -0.91,-0.21 -1.906,-0.316 -2.99,-0.316 -1.189,0 -2.13,0.291 -2.818,0.873 -0.689,0.582 -1.055,1.386 -1.097,2.409 h 11.033 v 2.811 c 0,2.706 -0.734,4.778 -2.202,6.216"
             style="fill:#000000;fill-opacity:1;fill-rule:nonzero;stroke:none"
             id="path60"
             inkscape:connector-curvature="0" /></g></g></g></g></svg>